<svg xmlns="http://www.w3.org/2000/svg" viewBox="0 0 1280 720" width="100%" height="100%">
  <defs>
    <linearGradient id="bg" x1="0%" y1="0%" x2="100%" y2="100%">
      <stop offset="0%" stop-color="#070a0e"/>
      <stop offset="100%" stop-color="#0c1015"/>
    </linearGradient>
    <linearGradient id="accent" x1="0%" y1="0%" x2="100%" y2="0%">
      <stop offset="0%" stop-color="#f2a100"/>
      <stop offset="50%" stop-color="#00f2ff"/>
      <stop offset="100%" stop-color="#10b981"/>
    </linearGradient>
    <style>
      .mono { font-family: 'JetBrains Mono', 'Fira Code', 'Courier New', monospace; }
      .sans { font-family: -apple-system, BlinkMacSystemFont, 'Segoe UI', Roboto, sans-serif; }
    </style>
  </defs>

  <!-- Background -->
  <rect width="1280" height="720" fill="url(#bg)"/>
  <rect x="0" y="0" width="1280" height="3" fill="url(#accent)"/>

  <!-- Top App Bar -->
  <rect x="20" y="15" width="1240" height="55" fill="#0f141c" stroke="#1e2633" stroke-width="1" rx="4"/>
  
  <!-- Logo & Title -->
  <g transform="translate(35, 27)">
    <polygon points="12,0 24,6 24,18 12,24 0,18 0,6" fill="#f2a100" fill-opacity="0.2" stroke="#f2a100" stroke-width="2"/>
    <circle cx="12" cy="12" r="4" fill="#00f2ff"/>
    <text x="34" y="17" fill="#ffffff" font-weight="900" font-size="18" class="mono" letter-spacing="1">SPACEGUARD <tspan fill="#f2a100">v1.2.0</tspan></text>
  </g>

  <!-- Version & System Badges -->
  <g transform="translate(320, 31)">
    <rect width="180" height="24" fill="#1e293b" rx="3"/>
    <text x="10" y="16" fill="#94a3b8" font-size="10" class="mono">SYSTEM: <tspan fill="#38bdf8" font-weight="bold">DEBIAN 12 / KALI</tspan></text>
  </g>

  <g transform="translate(510, 31)">
    <rect width="140" height="24" fill="#1e293b" rx="3"/>
    <text x="10" y="16" fill="#94a3b8" font-size="10" class="mono">DAEMON: <tspan fill="#34d399" font-weight="bold">ONLINE (PID 1420)</tspan></text>
  </g>

  <!-- Top Controls (Lang, Theme, Time) -->
  <g transform="translate(980, 28)">
    <rect width="65" height="28" fill="#16202c" stroke="#334155" stroke-width="1" rx="3"/>
    <text x="12" y="18" fill="#00f2ff" font-size="11" font-weight="bold" class="mono">🌐 EN</text>

    <rect x="75" y="0" width="110" height="28" fill="#f2a100" fill-opacity="0.15" stroke="#f2a100" stroke-width="1" rx="3"/>
    <text x="87" y="18" fill="#f2a100" font-size="11" font-weight="bold" class="mono">🎨 Forge Theme</text>
  </g>

  <!-- Stats Grid (4 Cards) -->
  <!-- Card 1: Disk Utilization -->
  <g transform="translate(20, 82)">
    <rect width="295" height="85" fill="#0f141c" stroke="#1e2633" stroke-width="1" rx="4"/>
    <text x="20" y="25" fill="#64748b" font-size="10" font-weight="bold" class="mono">DISK UTILIZATION (/)</text>
    <text x="20" y="52" fill="#ffffff" font-size="20" font-weight="bold" class="mono">53.4 GB <tspan fill="#64748b" font-size="13">/ 60.0 GB</tspan></text>
    <text x="220" y="52" fill="#f2a100" font-size="16" font-weight="bold" class="mono">89%</text>
    <rect x="20" y="62" width="255" height="5" fill="#1e293b" rx="2"/>
    <rect x="20" y="62" width="227" height="5" fill="#f2a100" rx="2"/>
  </g>

  <!-- Card 2: Trash Storage -->
  <g transform="translate(335, 82)">
    <rect width="295" height="85" fill="#0f141c" stroke="#1e2633" stroke-width="1" rx="4"/>
    <text x="20" y="25" fill="#64748b" font-size="10" font-weight="bold" class="mono">TRASH BIN STORAGE</text>
    <text x="20" y="52" fill="#ef4444" font-size="20" font-weight="bold" class="mono">1,240 MB</text>
    <rect x="180" y="36" width="95" height="24" fill="#ef4444" fill-opacity="0.15" stroke="#ef4444" stroke-width="1" rx="3"/>
    <text x="192" y="52" fill="#f87171" font-size="10" font-weight="bold" class="mono">FLUSH TRASH</text>
    <text x="20" y="72" fill="#64748b" font-size="10" class="mono">~.Trash &amp; system rubbish</text>
  </g>

  <!-- Card 3: Package Cache -->
  <g transform="translate(650, 82)">
    <rect width="295" height="85" fill="#0f141c" stroke="#1e2633" stroke-width="1" rx="4"/>
    <text x="20" y="25" fill="#64748b" font-size="10" font-weight="bold" class="mono">APT / BREW CACHE</text>
    <text x="20" y="52" fill="#00f2ff" font-size="20" font-weight="bold" class="mono">2,450 MB</text>
    <rect x="180" y="36" width="95" height="24" fill="#00f2ff" fill-opacity="0.15" stroke="#00f2ff" stroke-width="1" rx="3"/>
    <text x="192" y="52" fill="#38bdf8" font-size="10" font-weight="bold" class="mono">PURGE CACHE</text>
    <text x="20" y="72" fill="#64748b" font-size="10" class="mono">Cleanable deb package pool</text>
  </g>

  <!-- Card 4: Memory & CPU -->
  <g transform="translate(965, 82)">
    <rect width="295" height="85" fill="#0f141c" stroke="#1e2633" stroke-width="1" rx="4"/>
    <text x="20" y="25" fill="#64748b" font-size="10" font-weight="bold" class="mono">DAEMON FOOTPRINT</text>
    <text x="20" y="52" fill="#34d399" font-size="20" font-weight="bold" class="mono">38.2 MB <tspan fill="#64748b" font-size="12">RAM</tspan></text>
    <text x="190" y="52" fill="#34d399" font-size="14" font-weight="bold" class="mono">0.1% CPU</text>
    <text x="20" y="72" fill="#64748b" font-size="10" class="mono">Ultra-compact background daemon</text>
  </g>

  <!-- Navigation Tabs Row -->
  <g transform="translate(20, 180)">
    <rect width="1240" height="42" fill="#0b0f14" stroke="#1e2633" stroke-width="1" rx="4"/>

    <!-- Tab 1 Active -->
    <rect x="6" y="5" width="180" height="32" fill="#f2a100" fill-opacity="0.18" stroke="#f2a100" stroke-width="1" rx="3"/>
    <text x="22" y="25" fill="#f2a100" font-size="11" font-weight="bold" class="mono">📦 Package Manager</text>

    <!-- Tab 2 -->
    <rect x="192" y="5" width="170" height="32" fill="#0f141c" rx="3"/>
    <text x="208" y="25" fill="#94a3b8" font-size="11" font-weight="bold" class="mono">🗺️ Disk Space Map</text>

    <!-- Tab 3 -->
    <rect x="368" y="5" width="160" height="32" fill="#0f141c" rx="3"/>
    <text x="384" y="25" fill="#94a3b8" font-size="11" font-weight="bold" class="mono">💻 CLI Console</text>

    <!-- Tab 4 -->
    <rect x="534" y="5" width="180" height="32" fill="#0f141c" rx="3"/>
    <text x="550" y="25" fill="#94a3b8" font-size="11" font-weight="bold" class="mono">🕸️ Dependency Graph</text>

    <!-- Tab 5 -->
    <rect x="720" y="5" width="170" height="32" fill="#0f141c" rx="3"/>
    <text x="736" y="25" fill="#94a3b8" font-size="11" font-weight="bold" class="mono">🐳 Containers</text>

    <!-- Tab 6 -->
    <rect x="896" y="5" width="160" height="32" fill="#0f141c" rx="3"/>
    <text x="912" y="25" fill="#94a3b8" font-size="11" font-weight="bold" class="mono">🔍 Deep Scan</text>
  </g>

  <!-- Main Content Panel: Package List Table -->
  <g transform="translate(20, 232)">
    <rect width="1240" height="470" fill="#0f141c" stroke="#1e2633" stroke-width="1" rx="4"/>

    <!-- Search & Filter Controls -->
    <g transform="translate(15, 12)">
      <rect width="320" height="32" fill="#070a0e" stroke="#1e2633" stroke-width="1" rx="3"/>
      <text x="12" y="20" fill="#64748b" font-size="11" class="mono">🔍 Search packages (e.g. nmap, python)...</text>

      <rect x="330" y="0" width="140" height="32" fill="#16202c" stroke="#1e2633" stroke-width="1" rx="3"/>
      <text x="345" y="20" fill="#e2e8f0" font-size="11" class="mono">Sort: Size (Desc)</text>

      <rect x="480" y="0" width="150" height="32" fill="#16202c" stroke="#1e2633" stroke-width="1" rx="3"/>
      <text x="495" y="20" fill="#e2e8f0" font-size="11" class="mono">Filter: Installed</text>

      <rect x="1050" y="0" width="160" height="32" fill="#10b981" fill-opacity="0.15" stroke="#10b981" stroke-width="1" rx="3"/>
      <text x="1065" y="20" fill="#34d399" font-size="11" font-weight="bold" class="mono">+ Simulate Download</text>
    </g>

    <!-- Table Header -->
    <g transform="translate(15, 54)">
      <rect width="1210" height="32" fill="#141a24"/>
      <text x="15" y="20" fill="#64748b" font-size="10" font-weight="bold" class="mono">PACKAGE NAME</text>
      <text x="260" y="20" fill="#64748b" font-size="10" font-weight="bold" class="mono">METHOD</text>
      <text x="400" y="20" fill="#64748b" font-size="10" font-weight="bold" class="mono">DECLARED SIZE</text>
      <text x="560" y="20" fill="#64748b" font-size="10" font-weight="bold" class="mono">ACTUAL FOOTPRINT</text>
      <text x="750" y="20" fill="#64748b" font-size="10" font-weight="bold" class="mono">STATUS</text>
      <text x="890" y="20" fill="#64748b" font-size="10" font-weight="bold" class="mono">GRAPH</text>
      <text x="1050" y="20" fill="#64748b" font-size="10" font-weight="bold" class="mono">ACTIONS</text>
    </g>

    <!-- Row 1: wireshark-qt -->
    <g transform="translate(15, 88)">
      <rect width="1210" height="38" fill="#0f141c"/>
      <text x="15" y="23" fill="#ffffff" font-size="12" font-weight="bold" class="mono">wireshark-qt</text>
      <text x="260" y="23" fill="#a855f7" font-size="11" class="mono">apt-get</text>
      <text x="400" y="23" fill="#94a3b8" font-size="11" class="mono">42.1 MB</text>
      <text x="560" y="23" fill="#f2a100" font-size="12" font-weight="bold" class="mono">118.4 MB</text>
      <rect x="750" y="8" width="75" height="20" fill="#10b981" fill-opacity="0.15" rx="3"/>
      <text x="762" y="22" fill="#34d399" font-size="10" font-weight="bold" class="mono">installed</text>
      <text x="890" y="23" fill="#38bdf8" font-size="11" class="mono">(14) graph</text>
      <rect x="1050" y="6" width="80" height="24" fill="#ef4444" fill-opacity="0.18" stroke="#ef4444" stroke-width="1" rx="3"/>
      <text x="1068" y="22" fill="#f87171" font-size="10" font-weight="bold" class="mono">PURGE</text>
    </g>

    <!-- Row 2: credential-harvester (Active/Expanded) -->
    <g transform="translate(15, 128)">
      <rect width="1210" height="38" fill="#161e2a" stroke="#00f2ff" stroke-width="1"/>
      <text x="15" y="23" fill="#00f2ff" font-size="12" font-weight="bold" class="mono">credential-harvester</text>
      <rect x="180" y="9" width="70" height="18" fill="#f59e0b" fill-opacity="0.2" rx="2"/>
      <text x="185" y="22" fill="#fbbf24" font-size="9" font-weight="bold" class="mono">WGET / ZIP</text>
      <text x="260" y="23" fill="#f59e0b" font-size="11" class="mono">wget</text>
      <text x="400" y="23" fill="#94a3b8" font-size="11" class="mono">45.0 MB</text>
      <text x="560" y="23" fill="#ef4444" font-size="12" font-weight="bold" class="mono">92.5 MB</text>
      <rect x="750" y="8" width="75" height="20" fill="#10b981" fill-opacity="0.15" rx="3"/>
      <text x="762" y="22" fill="#34d399" font-size="10" font-weight="bold" class="mono">installed</text>
      <text x="890" y="23" fill="#38bdf8" font-size="11" class="mono">(4) graph</text>
      <rect x="1050" y="6" width="80" height="24" fill="#ef4444" fill-opacity="0.25" stroke="#ef4444" stroke-width="1" rx="3"/>
      <text x="1068" y="22" fill="#f87171" font-size="10" font-weight="bold" class="mono">PURGE</text>
    </g>

    <!-- Expanded Telemetry Drawer for credential-harvester -->
    <g transform="translate(25, 172)">
      <rect width="1190" height="235" fill="#080c10" stroke="#1e2633" stroke-width="1" rx="4"/>

      <!-- Column 1: Provenance Audit Details -->
      <g transform="translate(20, 15)">
        <text x="0" y="15" fill="#64748b" font-size="10" font-weight="bold" class="mono">PROVENANCE AUDIT (TELEMETRY TRACKING)</text>
        <line x1="0" y1="22" x2="520" y2="22" stroke="#1e2633" stroke-width="1"/>

        <text x="0" y="45" fill="#94a3b8" font-size="11" class="mono">Installing User: <tspan fill="#ffffff" font-weight="bold">kali</tspan> <tspan fill="#ef4444">[SUDO PRIVILEGES]</tspan></text>
        <text x="0" y="70" fill="#94a3b8" font-size="11" class="mono">Installed At: <tspan fill="#ffffff">2026-07-22 14:22:10</tspan></text>
        <text x="0" y="95" fill="#94a3b8" font-size="11" class="mono">Deployment Method: <tspan fill="#34d399" font-weight="bold">WGET (ZIP-EXTRACT TO /opt)</tspan></text>
        <text x="0" y="120" fill="#94a3b8" font-size="11" class="mono">Source URL: <tspan fill="#38bdf8">https://github.com/phishing/gophish/master.zip</tspan></text>
        
        <text x="0" y="150" fill="#94a3b8" font-size="11" class="mono">Collaborating Runtime Packages:</text>
        <g transform="translate(0, 162)">
          <rect width="65" height="20" fill="#1e293b" rx="2"/>
          <text x="8" y="14" fill="#cbd5e1" font-size="10" class="mono">python3</text>
          <rect x="72" width="55" height="20" fill="#1e293b" rx="2"/>
          <text x="80" y="14" fill="#cbd5e1" font-size="10" class="mono">libc6</text>
          <rect x="134" width="60" height="20" fill="#1e293b" rx="2"/>
          <text x="142" y="14" fill="#cbd5e1" font-size="10" class="mono">libssl3</text>
          <rect x="200" width="55" height="20" fill="#1e293b" rx="2"/>
          <text x="208" y="14" fill="#cbd5e1" font-size="10" class="mono">nmap</text>
        </g>
      </g>

      <line x1="570" y1="15" x2="570" y2="220" stroke="#1e2633" stroke-width="1"/>

      <!-- Column 2: Tracked Disk Paths Register -->
      <g transform="translate(590, 15)">
        <text x="0" y="15" fill="#64748b" font-size="10" font-weight="bold" class="mono">REGISTER OF CREATED DISK PATHS (4 LOCATIONS)</text>
        <line x1="0" y1="22" x2="570" y2="22" stroke="#1e2633" stroke-width="1"/>

        <rect y="32" width="570" height="140" fill="#030508" stroke="#1a202c" stroke-width="1" rx="3"/>
        <g transform="translate(15, 20)">
          <text x="0" y="15" fill="#34d399" font-size="11" class="mono">📄 /opt/credential-harvester/bin/start</text>
          <text x="0" y="40" fill="#34d399" font-size="11" class="mono">📄 /opt/credential-harvester/config/settings.yml</text>
          <text x="0" y="65" fill="#34d399" font-size="11" class="mono">📄 /var/log/spaceguard/harvester_telemetry.log</text>
          <text x="0" y="90" fill="#34d399" font-size="11" class="mono">📄 /tmp/harvester_payload.tmp</text>
        </g>

        <text x="0" y="192" fill="#64748b" font-size="10" class="mono">SpaceGuard Footprint Notice: Purging will permanently remove all 4 tracked paths from disk.</text>
      </g>
    </g>

    <!-- Row 3: metasploit-framework -->
    <g transform="translate(15, 415)">
      <rect width="1210" height="38" fill="#0f141c"/>
      <text x="15" y="23" fill="#ffffff" font-size="12" font-weight="bold" class="mono">metasploit-framework</text>
      <text x="260" y="23" fill="#a855f7" font-size="11" class="mono">apt-get</text>
      <text x="400" y="23" fill="#94a3b8" font-size="11" class="mono">512.0 MB</text>
      <text x="560" y="23" fill="#f2a100" font-size="12" font-weight="bold" class="mono">1,840.0 MB</text>
      <rect x="750" y="8" width="75" height="20" fill="#10b981" fill-opacity="0.15" rx="3"/>
      <text x="762" y="22" fill="#34d399" font-size="10" font-weight="bold" class="mono">installed</text>
      <text x="890" y="23" fill="#38bdf8" font-size="11" class="mono">(28) graph</text>
      <rect x="1050" y="6" width="80" height="24" fill="#ef4444" fill-opacity="0.18" stroke="#ef4444" stroke-width="1" rx="3"/>
      <text x="1068" y="22" fill="#f87171" font-size="10" font-weight="bold" class="mono">PURGE</text>
    </g>

  </g>
</svg>
